# xmcd
#
# Track frame offsets: 
#        150
#        12120
#        22125
#        56048
#        67883
#        80896
#        92296
#        113169
#        123587
#        133555
#        143538
#
# Disc length: 2051 seconds
#
# Revision: 0
# Processed by: cddbd v1.5.2PL0 Copyright (c) Steve Scherf et al.
# Submitted via: ExactAudioCopy v1.0b3
#
DISCID=8e08010b
DTITLE=The Staple Singers - This Little Light
DYEAR=1964
DGENRE=Soul
TTITLE0=This Little Light Of Mine
TTITLE1=What Are They Doing
TTITLE2=Hard Rain's Gonna Fall
TTITLE3=You Got Shoes
TTITLE4=Will The Lord Remember Me
TTITLE5=My Dying Bed
TTITLE6=Masters of War
TTITLE7=Let Jesus Lead You
TTITLE8=Prayin' Time
TTITLE9=Use What You Got
TTITLE10=I Can't Help From Cryin' Sometime
EXTD=
EXTT0=
EXTT1=
EXTT2=
EXTT3=
EXTT4=
EXTT5=
EXTT6=
EXTT7=
EXTT8=
EXTT9=
EXTT10=
PLAYORDER=
